<?xml version="1.0" encoding="UTF-8"?>
<svg width="20px" height="32px" viewBox="0 0 20 32" version="1.1" xmlns="http://www.w3.org/2000/svg" xmlns:xlink="http://www.w3.org/1999/xlink">
    <!-- Generator: Sketch 52.6 (67491) - http://www.bohemiancoding.com/sketch -->
    <title>location2</title>
    <desc>Created with Sketch.</desc>
    <g id="Page-1" stroke="none" stroke-width="1" fill="none" fill-rule="evenodd">
        <g id="location2" fill="#FFFFFF" fill-rule="nonzero">
            <path d="M10,0 C4.477,0 0,4.477 0,10 C0,20 10,32 10,32 C10,32 20,20 20,10 C20,4.477 15.523,0 10,0 Z M10,16.125 C6.617,16.125 3.875,13.383 3.875,10 C3.875,6.617 6.617,3.875 10,3.875 C13.383,3.875 16.125,6.617 16.125,10 C16.125,13.383 13.383,16.125 10,16.125 Z M6.125,10 C6.125,7.86 7.86,6.125 10,6.125 C12.14,6.125 13.875,7.86 13.875,10 C13.875,12.14 12.14,13.875 10,13.875 C7.86,13.875 6.125,12.14 6.125,10 Z" id="Shape"></path>
        </g>
    </g>
</svg>