<?xml version="1.0" encoding="UTF-8"?>
<svg width="28px" height="28px" viewBox="0 0 28 28" version="1.1" xmlns="http://www.w3.org/2000/svg" xmlns:xlink="http://www.w3.org/1999/xlink">
    <!-- Generator: Sketch 52.6 (67491) - http://www.bohemiancoding.com/sketch -->
    <title>pinterest</title>
    <desc>Created with Sketch.</desc>
    <g id="Page-1" stroke="none" stroke-width="1" fill="none" fill-rule="evenodd">
        <g id="Artboard" transform="translate(-176.000000, -298.000000)" fill="#FFFFFF">
            <g id="pinterest" transform="translate(176.000000, 298.000000)">
                <path d="M14,0.138 C6.344,0.138 0.137,6.344 0.137,14.001 C0.137,19.876 3.793,24.888 8.95,26.907 C8.831,25.813 8.719,24.126 9,22.932 C9.25,21.851 10.625,16.045 10.625,16.045 C10.625,16.045 10.213,15.214 10.213,13.989 C10.213,12.064 11.332,10.62 12.719,10.62 C13.9,10.62 14.475,11.507 14.475,12.57 C14.475,13.758 13.719,15.539 13.325,17.183 C12.994,18.564 14.013,19.689 15.375,19.689 C17.837,19.689 19.731,17.089 19.731,13.339 C19.731,10.02 17.344,7.701 13.944,7.701 C10,7.701 7.688,10.657 7.688,13.72 C7.688,14.914 8.144,16.189 8.719,16.883 C8.832,17.02 8.85,17.139 8.813,17.283 C8.707,17.721 8.475,18.664 8.426,18.858 C8.363,19.114 8.226,19.164 7.963,19.046 C6.232,18.24 5.15,15.709 5.15,13.677 C5.15,9.302 8.325,5.29 14.306,5.29 C19.112,5.29 22.85,8.715 22.85,13.296 C22.85,18.071 19.838,21.921 15.656,21.921 C14.25,21.921 12.931,21.19 12.481,20.327 C12.481,20.327 11.787,22.971 11.618,23.621 C11.305,24.827 10.462,26.333 9.893,27.252 C11.193,27.652 12.568,27.871 13.999,27.871 C21.655,27.871 27.862,21.665 27.862,14.008 C27.862,6.346 21.656,0.139 13.999,0.139 L14,0.138 Z" id="Path"></path>
            </g>
        </g>
    </g>
</svg>