<?xml version="1.0" encoding="UTF-8"?>
<svg width="32px" height="32px" viewBox="0 0 32 32" version="1.1" xmlns="http://www.w3.org/2000/svg" xmlns:xlink="http://www.w3.org/1999/xlink">
    <!-- Generator: Sketch 52.6 (67491) - http://www.bohemiancoding.com/sketch -->
    <title>whatsapp</title>
    <desc>Created with Sketch.</desc>
    <g id="Page-1" stroke="none" stroke-width="1" fill="none" fill-rule="evenodd">
        <g id="Artboard" transform="translate(-204.000000, -161.000000)" fill="#FFFFFF" fill-rule="nonzero">
            <g id="whatsapp" transform="translate(204.000000, 161.000000)">
                <path d="M27.281,4.65 C24.287,1.65 20.306,0 16.062,0 C7.324,0 0.212,7.112 0.212,15.856 C0.212,18.65 0.943,21.381 2.331,23.781 L0.081,32 L8.487,29.794 C10.806,31.056 13.412,31.725 16.062,31.725 L16.068,31.725 C16.068,31.725 16.068,31.725 16.068,31.725 C24.806,31.725 31.924,24.612 31.924,15.869 C31.924,11.631 30.274,7.65 27.28,4.65 L27.281,4.65 Z M16.069,29.05 C13.7,29.05 11.381,28.413 9.356,27.213 L8.875,26.925 L3.888,28.231 L5.219,23.368 L4.906,22.868 C3.581,20.774 2.887,18.349 2.887,15.856 C2.887,8.587 8.799,2.675 16.075,2.675 C19.594,2.675 22.906,4.05 25.394,6.537 C27.882,9.031 29.25,12.337 29.25,15.862 C29.244,23.137 23.331,29.05 16.069,29.05 Z M23.294,19.175 C22.9,18.975 20.95,18.019 20.588,17.887 C20.226,17.755 19.963,17.687 19.694,18.087 C19.432,18.481 18.669,19.375 18.438,19.643 C18.207,19.905 17.976,19.943 17.582,19.743 C17.188,19.543 15.907,19.124 14.394,17.774 C13.219,16.724 12.419,15.424 12.188,15.03 C11.957,14.636 12.163,14.417 12.363,14.224 C12.544,14.049 12.757,13.761 12.957,13.53 C13.157,13.299 13.219,13.136 13.351,12.868 C13.482,12.606 13.42,12.374 13.32,12.174 C13.22,11.974 12.426,10.024 12.101,9.23 C11.782,8.455 11.451,8.561 11.207,8.549 C10.976,8.537 10.713,8.537 10.451,8.537 C10.189,8.537 9.757,8.637 9.395,9.031 C9.032,9.425 8.008,10.387 8.008,12.337 C8.008,14.287 9.427,16.168 9.627,16.437 C9.827,16.699 12.421,20.706 16.396,22.418 C17.34,22.824 18.077,23.068 18.652,23.255 C19.602,23.555 20.465,23.511 21.146,23.411 C21.908,23.298 23.49,22.455 23.821,21.53 C24.152,20.605 24.152,19.811 24.052,19.649 C23.958,19.474 23.696,19.374 23.296,19.174 L23.294,19.175 Z" id="Shape"></path>
            </g>
        </g>
    </g>
</svg>